<mxfile host="app.diagrams.net" agent="Mozilla/5.0 (Windows NT 10.0; Win64; x64) AppleWebKit/537.36 (KHTML, like Gecko) Chrome/131.0.0.0 Safari/537.36 Edg/131.0.0.0" version="25.0.3">
  <diagram id="C5RBs43oDa-KdzZeNtuy" name="Page-1">
    <mxGraphModel dx="4661" dy="1193" grid="1" gridSize="10" guides="1" tooltips="1" connect="1" arrows="1" fold="1" page="1" pageScale="1" pageWidth="827" pageHeight="1169" math="0" shadow="0">
      <root>
        <mxCell id="WIyWlLk6GJQsqaUBKTNV-0" />
        <mxCell id="WIyWlLk6GJQsqaUBKTNV-1" parent="WIyWlLk6GJQsqaUBKTNV-0" />
        <mxCell id="mvioNwK95yMqdUQ73LqQ-36" value="" style="swimlane;fontFamily=Sarabun;fontSource=https%3A%2F%2Ffonts.googleapis.com%2Fcss%3Ffamily%3DSarabun;" parent="WIyWlLk6GJQsqaUBKTNV-1" vertex="1">
          <mxGeometry x="-2340" y="60" width="2230" height="2510" as="geometry" />
        </mxCell>
        <mxCell id="JBCHaNcfTczLMrVH9G6V-0" style="edgeStyle=orthogonalEdgeStyle;rounded=0;orthogonalLoop=1;jettySize=auto;html=1;exitX=0.5;exitY=1;exitDx=0;exitDy=0;" parent="mvioNwK95yMqdUQ73LqQ-36" source="mvioNwK95yMqdUQ73LqQ-35" edge="1">
          <mxGeometry relative="1" as="geometry">
            <mxPoint x="320.2758620689656" y="130" as="targetPoint" />
          </mxGeometry>
        </mxCell>
        <mxCell id="mvioNwK95yMqdUQ73LqQ-35" value="&lt;font data-font-src=&quot;https://fonts.googleapis.com/css?family=Sarabun&quot; face=&quot;Sarabun&quot;&gt;Start&lt;/font&gt;" style="ellipse;whiteSpace=wrap;html=1;" parent="mvioNwK95yMqdUQ73LqQ-36" vertex="1">
          <mxGeometry x="255" y="40" width="130" height="30" as="geometry" />
        </mxCell>
        <mxCell id="yjX-fK6mndEuKa420kCy-2" style="edgeStyle=orthogonalEdgeStyle;rounded=0;orthogonalLoop=1;jettySize=auto;html=1;" edge="1" parent="mvioNwK95yMqdUQ73LqQ-36" source="yjX-fK6mndEuKa420kCy-0">
          <mxGeometry relative="1" as="geometry">
            <mxPoint x="320" y="290" as="targetPoint" />
          </mxGeometry>
        </mxCell>
        <mxCell id="yjX-fK6mndEuKa420kCy-0" value="Declare&lt;div&gt;userinput is int&lt;/div&gt;&lt;div&gt;primeCheck is bool&lt;/div&gt;" style="rounded=0;whiteSpace=wrap;html=1;" vertex="1" parent="mvioNwK95yMqdUQ73LqQ-36">
          <mxGeometry x="260" y="130" width="120" height="60" as="geometry" />
        </mxCell>
        <mxCell id="yjX-fK6mndEuKa420kCy-4" style="edgeStyle=orthogonalEdgeStyle;rounded=0;orthogonalLoop=1;jettySize=auto;html=1;" edge="1" parent="mvioNwK95yMqdUQ73LqQ-36" source="yjX-fK6mndEuKa420kCy-3">
          <mxGeometry relative="1" as="geometry">
            <mxPoint x="320" y="420" as="targetPoint" />
          </mxGeometry>
        </mxCell>
        <mxCell id="yjX-fK6mndEuKa420kCy-3" value="Read userInput" style="shape=parallelogram;perimeter=parallelogramPerimeter;whiteSpace=wrap;html=1;fixedSize=1;" vertex="1" parent="mvioNwK95yMqdUQ73LqQ-36">
          <mxGeometry x="260" y="290" width="120" height="60" as="geometry" />
        </mxCell>
        <mxCell id="yjX-fK6mndEuKa420kCy-13" style="edgeStyle=orthogonalEdgeStyle;rounded=0;orthogonalLoop=1;jettySize=auto;html=1;entryX=0.5;entryY=0;entryDx=0;entryDy=0;" edge="1" parent="mvioNwK95yMqdUQ73LqQ-36" source="yjX-fK6mndEuKa420kCy-5" target="yjX-fK6mndEuKa420kCy-10">
          <mxGeometry relative="1" as="geometry" />
        </mxCell>
        <mxCell id="yjX-fK6mndEuKa420kCy-5" value="Declare i is int&lt;div&gt;for store userinput&amp;nbsp;&lt;/div&gt;" style="rounded=0;whiteSpace=wrap;html=1;" vertex="1" parent="mvioNwK95yMqdUQ73LqQ-36">
          <mxGeometry x="260" y="420" width="120" height="60" as="geometry" />
        </mxCell>
        <mxCell id="yjX-fK6mndEuKa420kCy-34" style="edgeStyle=orthogonalEdgeStyle;rounded=0;orthogonalLoop=1;jettySize=auto;html=1;" edge="1" parent="mvioNwK95yMqdUQ73LqQ-36" source="yjX-fK6mndEuKa420kCy-7" target="yjX-fK6mndEuKa420kCy-33">
          <mxGeometry relative="1" as="geometry" />
        </mxCell>
        <mxCell id="yjX-fK6mndEuKa420kCy-7" value="primeCheck = true&lt;div&gt;j = 2&lt;/div&gt;" style="rounded=0;whiteSpace=wrap;html=1;" vertex="1" parent="mvioNwK95yMqdUQ73LqQ-36">
          <mxGeometry x="245" y="580" width="150" height="100" as="geometry" />
        </mxCell>
        <mxCell id="yjX-fK6mndEuKa420kCy-15" style="edgeStyle=orthogonalEdgeStyle;rounded=0;orthogonalLoop=1;jettySize=auto;html=1;entryX=0;entryY=0.5;entryDx=0;entryDy=0;" edge="1" parent="mvioNwK95yMqdUQ73LqQ-36" source="yjX-fK6mndEuKa420kCy-9" target="yjX-fK6mndEuKa420kCy-10">
          <mxGeometry relative="1" as="geometry">
            <Array as="points">
              <mxPoint x="320" y="1990" />
              <mxPoint x="-30" y="1990" />
              <mxPoint x="-30" y="535" />
            </Array>
          </mxGeometry>
        </mxCell>
        <mxCell id="yjX-fK6mndEuKa420kCy-65" style="edgeStyle=orthogonalEdgeStyle;rounded=0;orthogonalLoop=1;jettySize=auto;html=1;" edge="1" parent="mvioNwK95yMqdUQ73LqQ-36" source="yjX-fK6mndEuKa420kCy-9" target="yjX-fK6mndEuKa420kCy-64">
          <mxGeometry relative="1" as="geometry">
            <Array as="points">
              <mxPoint x="430" y="1850" />
              <mxPoint x="430" y="2205" />
            </Array>
          </mxGeometry>
        </mxCell>
        <mxCell id="yjX-fK6mndEuKa420kCy-9" value="i &amp;gt; 1" style="rhombus;whiteSpace=wrap;html=1;" vertex="1" parent="mvioNwK95yMqdUQ73LqQ-36">
          <mxGeometry x="280" y="1810" width="80" height="80" as="geometry" />
        </mxCell>
        <mxCell id="yjX-fK6mndEuKa420kCy-14" style="edgeStyle=orthogonalEdgeStyle;rounded=0;orthogonalLoop=1;jettySize=auto;html=1;entryX=0.5;entryY=0;entryDx=0;entryDy=0;" edge="1" parent="mvioNwK95yMqdUQ73LqQ-36" source="yjX-fK6mndEuKa420kCy-10" target="yjX-fK6mndEuKa420kCy-7">
          <mxGeometry relative="1" as="geometry" />
        </mxCell>
        <mxCell id="yjX-fK6mndEuKa420kCy-10" value="" style="ellipse;whiteSpace=wrap;html=1;aspect=fixed;" vertex="1" parent="mvioNwK95yMqdUQ73LqQ-36">
          <mxGeometry x="310" y="524.5" width="20" height="20" as="geometry" />
        </mxCell>
        <mxCell id="yjX-fK6mndEuKa420kCy-19" style="edgeStyle=orthogonalEdgeStyle;rounded=0;orthogonalLoop=1;jettySize=auto;html=1;" edge="1" parent="mvioNwK95yMqdUQ73LqQ-36" source="yjX-fK6mndEuKa420kCy-18">
          <mxGeometry relative="1" as="geometry">
            <mxPoint x="320" y="930" as="targetPoint" />
          </mxGeometry>
        </mxCell>
        <mxCell id="yjX-fK6mndEuKa420kCy-53" style="edgeStyle=orthogonalEdgeStyle;rounded=0;orthogonalLoop=1;jettySize=auto;html=1;entryX=1;entryY=0.5;entryDx=0;entryDy=0;" edge="1" parent="mvioNwK95yMqdUQ73LqQ-36" source="yjX-fK6mndEuKa420kCy-18" target="yjX-fK6mndEuKa420kCy-37">
          <mxGeometry relative="1" as="geometry">
            <mxPoint x="530" y="1415.2631578947369" as="targetPoint" />
            <Array as="points">
              <mxPoint x="480" y="840" />
              <mxPoint x="480" y="1300" />
            </Array>
          </mxGeometry>
        </mxCell>
        <mxCell id="yjX-fK6mndEuKa420kCy-18" value="j * j&amp;nbsp; &amp;lt;= i" style="rhombus;whiteSpace=wrap;html=1;" vertex="1" parent="mvioNwK95yMqdUQ73LqQ-36">
          <mxGeometry x="280" y="800" width="80" height="80" as="geometry" />
        </mxCell>
        <mxCell id="yjX-fK6mndEuKa420kCy-22" style="edgeStyle=orthogonalEdgeStyle;rounded=0;orthogonalLoop=1;jettySize=auto;html=1;" edge="1" parent="mvioNwK95yMqdUQ73LqQ-36" source="yjX-fK6mndEuKa420kCy-21">
          <mxGeometry relative="1" as="geometry">
            <mxPoint x="320" y="1070" as="targetPoint" />
          </mxGeometry>
        </mxCell>
        <mxCell id="yjX-fK6mndEuKa420kCy-50" style="edgeStyle=orthogonalEdgeStyle;rounded=0;orthogonalLoop=1;jettySize=auto;html=1;" edge="1" parent="mvioNwK95yMqdUQ73LqQ-36" source="yjX-fK6mndEuKa420kCy-21">
          <mxGeometry relative="1" as="geometry">
            <mxPoint x="220" y="1210" as="targetPoint" />
          </mxGeometry>
        </mxCell>
        <mxCell id="yjX-fK6mndEuKa420kCy-21" value="i % j == 0" style="rhombus;whiteSpace=wrap;html=1;" vertex="1" parent="mvioNwK95yMqdUQ73LqQ-36">
          <mxGeometry x="280" y="930" width="80" height="80" as="geometry" />
        </mxCell>
        <mxCell id="yjX-fK6mndEuKa420kCy-24" style="edgeStyle=orthogonalEdgeStyle;rounded=0;orthogonalLoop=1;jettySize=auto;html=1;" edge="1" parent="mvioNwK95yMqdUQ73LqQ-36" source="yjX-fK6mndEuKa420kCy-23">
          <mxGeometry relative="1" as="geometry">
            <mxPoint x="320" y="1180" as="targetPoint" />
          </mxGeometry>
        </mxCell>
        <mxCell id="yjX-fK6mndEuKa420kCy-23" value="primeChck = false" style="rounded=0;whiteSpace=wrap;html=1;" vertex="1" parent="mvioNwK95yMqdUQ73LqQ-36">
          <mxGeometry x="260" y="1070" width="120" height="60" as="geometry" />
        </mxCell>
        <mxCell id="yjX-fK6mndEuKa420kCy-38" style="edgeStyle=orthogonalEdgeStyle;rounded=0;orthogonalLoop=1;jettySize=auto;html=1;entryX=0.5;entryY=0;entryDx=0;entryDy=0;" edge="1" parent="mvioNwK95yMqdUQ73LqQ-36" source="yjX-fK6mndEuKa420kCy-25" target="yjX-fK6mndEuKa420kCy-37">
          <mxGeometry relative="1" as="geometry" />
        </mxCell>
        <mxCell id="yjX-fK6mndEuKa420kCy-49" style="edgeStyle=orthogonalEdgeStyle;rounded=0;orthogonalLoop=1;jettySize=auto;html=1;" edge="1" parent="mvioNwK95yMqdUQ73LqQ-36" source="yjX-fK6mndEuKa420kCy-25" target="yjX-fK6mndEuKa420kCy-46">
          <mxGeometry relative="1" as="geometry" />
        </mxCell>
        <mxCell id="yjX-fK6mndEuKa420kCy-25" value="break" style="rounded=0;whiteSpace=wrap;html=1;" vertex="1" parent="mvioNwK95yMqdUQ73LqQ-36">
          <mxGeometry x="260" y="1180" width="120" height="60" as="geometry" />
        </mxCell>
        <mxCell id="yjX-fK6mndEuKa420kCy-41" style="edgeStyle=orthogonalEdgeStyle;rounded=0;orthogonalLoop=1;jettySize=auto;html=1;" edge="1" parent="mvioNwK95yMqdUQ73LqQ-36" source="yjX-fK6mndEuKa420kCy-27">
          <mxGeometry relative="1" as="geometry">
            <mxPoint x="320" y="1480" as="targetPoint" />
          </mxGeometry>
        </mxCell>
        <mxCell id="yjX-fK6mndEuKa420kCy-59" style="edgeStyle=orthogonalEdgeStyle;rounded=0;orthogonalLoop=1;jettySize=auto;html=1;entryX=0;entryY=0.5;entryDx=0;entryDy=0;" edge="1" parent="mvioNwK95yMqdUQ73LqQ-36" source="yjX-fK6mndEuKa420kCy-27" target="yjX-fK6mndEuKa420kCy-58">
          <mxGeometry relative="1" as="geometry">
            <Array as="points">
              <mxPoint x="200" y="1380" />
              <mxPoint x="200" y="1610" />
            </Array>
          </mxGeometry>
        </mxCell>
        <mxCell id="yjX-fK6mndEuKa420kCy-27" value="primeCheck = true?" style="rhombus;whiteSpace=wrap;html=1;" vertex="1" parent="mvioNwK95yMqdUQ73LqQ-36">
          <mxGeometry x="280" y="1340" width="80" height="80" as="geometry" />
        </mxCell>
        <mxCell id="yjX-fK6mndEuKa420kCy-35" style="edgeStyle=orthogonalEdgeStyle;rounded=0;orthogonalLoop=1;jettySize=auto;html=1;entryX=0.5;entryY=0;entryDx=0;entryDy=0;" edge="1" parent="mvioNwK95yMqdUQ73LqQ-36" source="yjX-fK6mndEuKa420kCy-33" target="yjX-fK6mndEuKa420kCy-18">
          <mxGeometry relative="1" as="geometry" />
        </mxCell>
        <mxCell id="yjX-fK6mndEuKa420kCy-33" value="" style="ellipse;whiteSpace=wrap;html=1;aspect=fixed;" vertex="1" parent="mvioNwK95yMqdUQ73LqQ-36">
          <mxGeometry x="310" y="740" width="20" height="20" as="geometry" />
        </mxCell>
        <mxCell id="yjX-fK6mndEuKa420kCy-39" style="edgeStyle=orthogonalEdgeStyle;rounded=0;orthogonalLoop=1;jettySize=auto;html=1;entryX=0.5;entryY=0;entryDx=0;entryDy=0;" edge="1" parent="mvioNwK95yMqdUQ73LqQ-36" source="yjX-fK6mndEuKa420kCy-37" target="yjX-fK6mndEuKa420kCy-27">
          <mxGeometry relative="1" as="geometry" />
        </mxCell>
        <mxCell id="yjX-fK6mndEuKa420kCy-37" value="" style="ellipse;whiteSpace=wrap;html=1;aspect=fixed;" vertex="1" parent="mvioNwK95yMqdUQ73LqQ-36">
          <mxGeometry x="310" y="1290" width="20" height="20" as="geometry" />
        </mxCell>
        <mxCell id="yjX-fK6mndEuKa420kCy-43" value="No" style="text;html=1;align=center;verticalAlign=middle;resizable=0;points=[];autosize=1;strokeColor=none;fillColor=none;" vertex="1" parent="mvioNwK95yMqdUQ73LqQ-36">
          <mxGeometry x="233" y="1330" width="40" height="30" as="geometry" />
        </mxCell>
        <mxCell id="yjX-fK6mndEuKa420kCy-62" value="" style="edgeStyle=orthogonalEdgeStyle;rounded=0;orthogonalLoop=1;jettySize=auto;html=1;" edge="1" parent="mvioNwK95yMqdUQ73LqQ-36" source="yjX-fK6mndEuKa420kCy-44" target="yjX-fK6mndEuKa420kCy-58">
          <mxGeometry relative="1" as="geometry" />
        </mxCell>
        <mxCell id="yjX-fK6mndEuKa420kCy-44" value="Display i&amp;nbsp;" style="shape=parallelogram;perimeter=parallelogramPerimeter;whiteSpace=wrap;html=1;fixedSize=1;" vertex="1" parent="mvioNwK95yMqdUQ73LqQ-36">
          <mxGeometry x="260" y="1480" width="120" height="60" as="geometry" />
        </mxCell>
        <mxCell id="yjX-fK6mndEuKa420kCy-42" value="Yes" style="text;html=1;align=center;verticalAlign=middle;resizable=0;points=[];autosize=1;strokeColor=none;fillColor=none;" vertex="1" parent="mvioNwK95yMqdUQ73LqQ-36">
          <mxGeometry x="270" y="1420" width="40" height="30" as="geometry" />
        </mxCell>
        <mxCell id="yjX-fK6mndEuKa420kCy-46" value="j++" style="rounded=0;whiteSpace=wrap;html=1;" vertex="1" parent="mvioNwK95yMqdUQ73LqQ-36">
          <mxGeometry x="70" y="1100" width="80" height="40" as="geometry" />
        </mxCell>
        <mxCell id="yjX-fK6mndEuKa420kCy-51" value="No" style="text;html=1;align=center;verticalAlign=middle;resizable=0;points=[];autosize=1;strokeColor=none;fillColor=none;" vertex="1" parent="mvioNwK95yMqdUQ73LqQ-36">
          <mxGeometry x="240" y="930" width="40" height="30" as="geometry" />
        </mxCell>
        <mxCell id="yjX-fK6mndEuKa420kCy-52" style="edgeStyle=orthogonalEdgeStyle;rounded=0;orthogonalLoop=1;jettySize=auto;html=1;entryX=-0.146;entryY=0.25;entryDx=0;entryDy=0;entryPerimeter=0;" edge="1" parent="mvioNwK95yMqdUQ73LqQ-36">
          <mxGeometry relative="1" as="geometry">
            <mxPoint x="110" y="1100" as="sourcePoint" />
            <mxPoint x="309.99999999999994" y="754" as="targetPoint" />
            <Array as="points">
              <mxPoint x="112.92" y="754" />
            </Array>
          </mxGeometry>
        </mxCell>
        <mxCell id="yjX-fK6mndEuKa420kCy-56" style="edgeStyle=orthogonalEdgeStyle;rounded=0;orthogonalLoop=1;jettySize=auto;html=1;" edge="1" parent="mvioNwK95yMqdUQ73LqQ-36" source="yjX-fK6mndEuKa420kCy-20" target="yjX-fK6mndEuKa420kCy-9">
          <mxGeometry relative="1" as="geometry" />
        </mxCell>
        <mxCell id="yjX-fK6mndEuKa420kCy-20" value="i--" style="rounded=0;whiteSpace=wrap;html=1;" vertex="1" parent="mvioNwK95yMqdUQ73LqQ-36">
          <mxGeometry x="260" y="1700" width="120" height="60" as="geometry" />
        </mxCell>
        <mxCell id="yjX-fK6mndEuKa420kCy-63" style="edgeStyle=orthogonalEdgeStyle;rounded=0;orthogonalLoop=1;jettySize=auto;html=1;" edge="1" parent="mvioNwK95yMqdUQ73LqQ-36" source="yjX-fK6mndEuKa420kCy-58" target="yjX-fK6mndEuKa420kCy-20">
          <mxGeometry relative="1" as="geometry" />
        </mxCell>
        <mxCell id="yjX-fK6mndEuKa420kCy-58" value="" style="ellipse;whiteSpace=wrap;html=1;aspect=fixed;" vertex="1" parent="mvioNwK95yMqdUQ73LqQ-36">
          <mxGeometry x="310" y="1600" width="20" height="20" as="geometry" />
        </mxCell>
        <mxCell id="yjX-fK6mndEuKa420kCy-64" value="&lt;font data-font-src=&quot;https://fonts.googleapis.com/css?family=Sarabun&quot; face=&quot;Sarabun&quot;&gt;End&lt;/font&gt;" style="ellipse;whiteSpace=wrap;html=1;" vertex="1" parent="mvioNwK95yMqdUQ73LqQ-36">
          <mxGeometry x="250" y="2260" width="130" height="30" as="geometry" />
        </mxCell>
        <mxCell id="yjX-fK6mndEuKa420kCy-45" value="Yes" style="text;html=1;align=center;verticalAlign=middle;resizable=0;points=[];autosize=1;strokeColor=none;fillColor=none;" vertex="1" parent="WIyWlLk6GJQsqaUBKTNV-1">
          <mxGeometry x="-2070" y="1068" width="40" height="30" as="geometry" />
        </mxCell>
        <mxCell id="yjX-fK6mndEuKa420kCy-57" value="&lt;br&gt;Yes" style="text;html=1;align=center;verticalAlign=middle;resizable=0;points=[];autosize=1;strokeColor=none;fillColor=none;" vertex="1" parent="WIyWlLk6GJQsqaUBKTNV-1">
          <mxGeometry x="-2070" y="1943" width="40" height="40" as="geometry" />
        </mxCell>
        <mxCell id="yjX-fK6mndEuKa420kCy-66" value="No" style="text;html=1;align=center;verticalAlign=middle;resizable=0;points=[];autosize=1;strokeColor=none;fillColor=none;" vertex="1" parent="WIyWlLk6GJQsqaUBKTNV-1">
          <mxGeometry x="-1960" y="1858" width="40" height="30" as="geometry" />
        </mxCell>
      </root>
    </mxGraphModel>
  </diagram>
</mxfile>
